<?xml version="1.0" encoding="utf-8"?>
<!-- Generator: Adobe Illustrator 21.1.0, SVG Export Plug-In . SVG Version: 6.00 Build 0)  -->
<svg version="1.1" id="Layer_1" xmlns="http://www.w3.org/2000/svg" xmlns:xlink="http://www.w3.org/1999/xlink" x="0px" y="0px"
	 viewBox="0 0 458.5 672.2" style="enable-background:new 0 0 458.5 672.2;" xml:space="preserve">
<style type="text/css">
	.st0{fill:#00F3EF;}
	.st1{fill:#FFFFFF;}
</style>
<g>
	<g id="XMLID_1_">
		<g id="XMLID_7942_">
			<g id="XMLID_7943_">
				<g id="XMLID_7944_">
					<path id="XMLID_7945_" class="st0" d="M409.2,670.7l-357.2,1.5c-27.3,0.1-49.6-22-49.7-49.3L0,51.2C-0.1,23.9,22,1.6,49.3,1.5
						L406.4,0c27.3-0.1,49.6,22,49.7,49.3l2.4,571.7C458.7,648.4,436.6,670.6,409.2,670.7z"/>
				</g>
				<path class="st1" d="M418.5,635.3H38.2c-6.6,0-12-5.4-12-12V40.7c0-6.6,5.4-12,12-12h380.2c6.6,0,12,5.4,12,12v582.5
					C430.5,629.9,425.1,635.3,418.5,635.3z"/>
			</g>
		</g>
	</g>
	<g>
		<path d="M318,282.5c0,0,85.1-19.4,97.3,9.4c5.2,11.4-17.4,21.9-31.3,20.1c-9.6,0,23.5,21.3-20,23.7c-13,4.1-23.5,61.5-80.8,42.4
			C262.4,366.8,318,282.5,318,282.5z"/>
		<path d="M359.7,246.9c0,0-12.2,8.7-15.6,24.3c-3.5,15.6-11.3,44.3-21.7,76.4c-10.4,32.1-40,65.2-86.9,77.3
			c-46.9,12.2-59.9-38.2-79.9-40.8c-20-2.6-79.9-1.7-89.5,8.7c-9.6,10.4-4.3-39.9,83.4-19.1c26.9,0.8,39.1-32.9,61.7-36.9
			s47.8-32.7,50.4-41.3c2.6-8.7,3.5-40,26.9-48.6S326.7,257.3,359.7,246.9z"/>
		<path d="M266.8,345.9c-13.9,26.1-115.5,14.8-132-47.8c-4.3-18.2-31.3,17.4-38.2-30.4c-2.6-11.3-30.3,8.7-33.8-17.4
			c-3.5-26.1,136.4-54.7,204.1,38.2C285.9,314.7,266.8,345.9,266.8,345.9z"/>
		<path d="M144.3,365.9c7.1,2.3-78.2-43.4-101.6-11.3C38.3,367.7,101.7,352,144.3,365.9z"/>
		<path d="M158.2,366c8.6,6.1-53-62.6-83.4-43.5C67,328.6,112.2,333.1,158.2,366z"/>
	</g>
</g>
</svg>
