<?xml version="1.0" encoding="utf-8"?>
<!-- Generator: Adobe Illustrator 21.1.0, SVG Export Plug-In . SVG Version: 6.00 Build 0)  -->
<svg version="1.1" id="Layer_1" xmlns="http://www.w3.org/2000/svg" xmlns:xlink="http://www.w3.org/1999/xlink" x="0px" y="0px"
	 viewBox="0 0 458.7 672.5" style="enable-background:new 0 0 458.7 672.5;" xml:space="preserve">
<style type="text/css">
	.st0{fill:#00F3EF;}
	.st1{fill:#FFFFFF;}
	.st2{fill:url(#SVGID_1_);}
</style>
<g>
	<g id="XMLID_2_">
		<g id="XMLID_3_">
			<g id="XMLID_4_">
				<g id="XMLID_5_">
					<path id="XMLID_6_" class="st0" d="M409.4,671l-357.3,1.5c-27.3,0.1-49.6-22-49.7-49.3L0,51.2C-0.1,23.9,22,1.6,49.3,1.5
						L406.6,0c27.3-0.1,49.6,22,49.7,49.3l2.4,572C458.8,648.6,436.8,670.9,409.4,671z"/>
				</g>
				<path class="st1" d="M418.6,635.5H38.2c-6.6,0-12-5.4-12-12V40.8c0-6.6,5.4-12,12-12h380.4c6.6,0,12,5.4,12,12v582.8
					C430.6,630.1,425.2,635.5,418.6,635.5z"/>
			</g>
		</g>
	</g>
	<g>
		<linearGradient id="SVGID_1_" gradientUnits="userSpaceOnUse" x1="43.3722" y1="356.1919" x2="416.8534" y2="356.1919">
			<stop  offset="0" style="stop-color:#FFFFFF"/>
			<stop  offset="0" style="stop-color:#000000"/>
		</linearGradient>
		<path class="st2" d="M104.7,520.7c-1.2-0.2-2.4-0.3-3.5-0.6c-5.5-1.5-7.8-5.9-8.7-11c-1-5.5,1-8.7,6.2-10.7
			c3.1-1.2,6.3-2.2,9.5-3.1c2-0.6,3.2-1.8,3.4-3.9c0.7-5.4,1.4-10.8,2.4-16.1c1.4-7.5,3-15,4.5-22.4c0.9-4.7,1.9-9.5,2.5-14.3
			c0.3-2.1,0.1-4.5-0.5-6.5c-4.5-14.2-10.5-27.6-19.7-39.3c-11.9-15.2-19.3-32.4-24.3-50.9c-1.8-6.5-0.4-12.8,1.6-19
			c1.2-3.9,2.6-7.7,4-11.6c1.7-4.6,3.1-9.2,3.1-14.3c-0.1-5,0.2-10-1.1-14.9c-1-3.6-3-6.3-6.7-7.5c-4.7-1.5-9.5-2.7-14.2-4.1
			c-1.7-0.5-3.4-1-5-1.7c-3.5-1.5-5.4-4.2-6-8c-0.1-0.7-0.6-1.5-1.1-2c-2.6-2.1-4.5-4.4-4.4-8c0-0.6-0.3-1.3-0.6-1.7
			c-3.5-4.1-3.5-9.5,0.2-13.5c0.6-0.7,1.3-1.3,1.9-2c3.7-3.8,6.6-8.1,7.7-13.4c2-9.8,7.4-17.5,14.9-23.9c1.3-1.1,2.5-2.2,3.8-3.3
			c3.8-3.3,8.1-5.6,13.1-6.7c1.5-0.3,3-0.8,4.5-1.4c2.2-0.8,2.9-2,2.2-4.3c-1.4-4.7-3-9.3-4.4-14c-0.4-1.4-0.9-2.9-1.1-4.4
			c-0.3-1.9,0.8-2.9,2.5-2.1c1.4,0.7,2.8,1.7,4,2.7c1.5,1.3,2.7,2.8,4.1,4.1c0.9,0.9,1.7,1,2.1-0.4c1.2-4,2.1-4,5.5-1.8
			c5.4,3.7,10.8,7.5,16,11.5c6.7,5.1,13.1,10.5,19.9,15.5c14.6,10.7,24.3,24.9,29.9,41.9c3,9.2,5.1,18.7,7.9,27.9
			c1.4,4.7,3.1,9.4,5,13.9c3.2,7.4,8.9,11.7,17.1,12.4c7.9,0.7,15.9,1.6,23.8,2.2c22.6,1.6,41.8,10.7,57.9,26.5
			c13.2,12.9,22,28.6,28.3,45.7c5.3,14.4,8.8,29.3,11.3,44.5c2.2,12.9,4,25.8,4.6,38.8c0.5,10.9,0.4,21.7,0.5,32.6
			c0,1.5,0,2.9,0,4.8c2-1.9,3.9-3.5,5.7-5.3c11.6-11.8,20.6-25.2,26.2-40.9c2.9-8.3,4.7-16.9,4.1-25.8c-0.5-6.8-2.6-13.2-5.1-19.4
			c-4.9-12.4-11.5-24.1-18-35.7c-7.1-12.7-14.3-25.4-21.3-38.2c-8.5-15.7-13.3-32.5-14.9-50.2c-1.1-12-0.7-23.8,2.7-35.4
			c6-20.3,19.9-32.2,40-37.2c13.7-3.4,26.9-2.3,39.6,4c13.9,7,22.1,18.6,26.3,33.2c3.7,13,3.3,25.8-3,38
			c-6.1,11.7-15.4,19.7-28.2,23.1c-1.7,0.5-3.5,0.7-5.3,0.7c-7,0-9.5-2.8-11-9.4c-1.1-4.7,0.8-8.4,4.4-11.2c2.1-1.6,4.5-2.9,6.9-4.1
			c2-1,4-1.9,6.1-2.6c6.9-2.3,9.7-7.7,10.6-14.3c1.5-10.5-3.1-18.4-11-24.7c-12.4-9.8-29.5-9.6-40.9,0.4
			c-6.1,5.4-9.1,12.4-10.1,20.3c-1.9,14.7,0.9,28.8,5.6,42.7c4.3,12.5,10.8,23.8,18.5,34.6c12.6,17.6,23,36.4,29.7,57.1
			c4.7,14.6,7.3,29.6,6.6,45c-1.2,25.6-10.6,47.7-28.1,66.5c-10.1,10.8-22,19.1-35.4,25.2c-0.7,0.3-1.4,1.1-1.8,1.8
			c-1.5,3.5-3.6,6.4-6.6,8.8c-3.5,2.8-7.2,5.2-11.4,7c-2.1,0.9-3.9,2.2-4.8,4.5c-0.6,1.5-2,2-3.4,2.2c-4.5,0.5-9,0.8-13.5,1.3
			c-9.3,1-18.5,2.1-27.8,3.1c-8.4,0.9-16.8,2.4-25.2,1.7c-3.5-0.3-6.9-1.1-10.4-1.4c-1.9-0.1-3.9,0-5.7,0.6
			c-6.9,2.2-13.9,3.7-21.2,3.4c-3.7-0.2-6.9-1.4-9.8-3.7c-5.1-4-5.8-11.2-1.5-17.3c1.7-2.4,4.1-4.4,6.2-6.5c0.4-0.4,0.8-0.6,1.3-1
			c-1.7-2-3.6-3-6.3-3.1c-7.5-0.2-15-0.5-22.4-1.2c-3.6-0.3-7-1.5-10.5-2.3c-2.2-0.5-2.5-0.3-3,1.9c-0.8,3.1-1.4,6.2-2.4,9.2
			c-2.9,8.1-8.6,13-17.3,13.4c-8.9,0.4-17.8-0.3-26.5-2.1c-3.7-0.8-5.5-2.9-6.1-6.6c-0.7-4.2,0.6-7.6,3.5-10.6
			c0.6-0.6,1.3-1,1.9-1.5C104.9,521,104.8,520.9,104.7,520.7z"/>
	</g>
</g>
</svg>
