<?xml version="1.0" encoding="utf-8"?>
<!-- Generator: Adobe Illustrator 21.1.0, SVG Export Plug-In . SVG Version: 6.00 Build 0)  -->
<svg version="1.1" id="Capa_1" xmlns="http://www.w3.org/2000/svg" xmlns:xlink="http://www.w3.org/1999/xlink" x="0px" y="0px"
	 viewBox="0 0 1400 962" style="enable-background:new 0 0 1400 962;" xml:space="preserve">
<style type="text/css">
	.st0{fill:#FFFFFF;stroke:#000000;stroke-miterlimit:10;}
	.st1{fill:#44874C;stroke:#A67C52;stroke-width:22;stroke-miterlimit:10;}
	.st2{fill:#44874C;stroke:#D3D63A;stroke-width:2;stroke-miterlimit:10;}
	.st3{fill:#891212;}
	.st4{font-family:'SignPainter-HouseScript';}
	.st5{font-size:80.277px;}
</style>
<path class="st0" d="M1040,720.9H319.2c-117.2,0-213.1-95.9-213.1-213.1v-94c0-117.2,95.9-213.1,213.1-213.1H1040
	c117.2,0,213.1,95.9,213.1,213.1v94C1253.1,625,1157.2,720.9,1040,720.9z"/>
<path class="st1" d="M1040,720.9H319.2c-117.2,0-213.1-95.9-213.1-213.1v-94c0-117.2,95.9-213.1,213.1-213.1H1040
	c117.2,0,213.1,95.9,213.1,213.1v94C1253.1,625,1157.2,720.9,1040,720.9z"/>
<path class="st2" d="M1033.4,696.8h-708c-106,0-192.7-86.7-192.7-192.7V419c0-106,86.7-192.7,192.7-192.7h708
	c106,0,192.7,86.7,192.7,192.7v85.1C1226.1,610.1,1139.4,696.8,1033.4,696.8z"/>
<text transform="matrix(1 0 0 1 515.1079 676.3877)" class="st3 st4 st5">Scaredy Cat</text>
</svg>
