<?xml version="1.0" encoding="utf-8"?>
<!-- Generator: Adobe Illustrator 21.1.0, SVG Export Plug-In . SVG Version: 6.00 Build 0)  -->
<svg version="1.1" id="Layer_1" xmlns="http://www.w3.org/2000/svg" xmlns:xlink="http://www.w3.org/1999/xlink" x="0px" y="0px"
	 viewBox="0 0 501.5 735.1" style="enable-background:new 0 0 501.5 735.1;" xml:space="preserve">
<style type="text/css">
	.st0{fill:#00F3EF;}
	.st1{fill:#FFFFFF;}
</style>
<g id="XMLID_1_">
	<g id="XMLID_7942_">
		<g id="XMLID_7943_">
			<g id="XMLID_7944_">
				<path id="XMLID_7945_" class="st0" d="M452.2,733.5l-399.8,1.7c-27.3,0.1-49.6-22-49.7-49.3L0,51.4C-0.1,24,22,1.8,49.3,1.7
					L449.1,0c27.3-0.1,49.6,22,49.7,49.3l2.7,634.5C501.6,711.1,479.5,733.4,452.2,733.5z"/>
			</g>
			<path class="st1" d="M458.8,694.7h-418c-6.6,0-12-5.4-12-12V43.4c0-6.6,5.4-12,12-12h418c6.6,0,12,5.4,12,12v639.2
				C470.8,689.3,465.4,694.7,458.8,694.7z"/>
		</g>
	</g>
</g>
<g>
	<path d="M95.8,249.4c-0.9,1.7-1.9,3.3-2.7,5C93.9,252.9,95.1,251.1,95.8,249.4z"/>
	<path d="M69.7,191.4c0.7,0.2,1.4,0.4,2.3,0.6C71.2,191.7,70.4,191.5,69.7,191.4z"/>
	<path d="M416,241.3c0,2.5,0,4.9,0,7.4C416.2,246.2,416.2,243.7,416,241.3z"/>
	<path d="M424.6,225.8c0.2,0.3,0.4,0.6,0.6,0.9C425.1,226.4,424.9,226.1,424.6,225.8C424.7,225.8,424.7,225.8,424.6,225.8z"/>
	<path d="M427.8,235.8c0.6,0.9,1.3,1.8,1.9,2.7c-0.2-2.2-0.7-3.3-1.8-4.9C427.8,234.4,427.7,235.1,427.8,235.8z"/>
	<path d="M425.2,226.8c0.3,0.7,0.7,1.3,1,1.9C426.1,228.1,425.6,227.4,425.2,226.8z"/>
	<path d="M442.2,220.1V204h-13.4c1.1-0.7,2.2-1.5,3.1-2.3c-1.7,0.5-3.4,1.4-5,2.3h-1.2c1.9-2.5,4.4-4.6,6.6-6.8
		c-4.9,2.3-9.8,4.6-14.8,6.8h-0.1c3.1-2.2,6.7-3.7,10-5.6c-2,0.5-4.1,0.9-6.2,1.2c0.1-0.6,0.4-1,0.5-1.6c-0.9,0.5-1.5,0.8-2.1,1.2
		c1.4-1.3,2.8-2.5,4.2-3.7c-4.2,1.1-9.9,3.4-14.2,6.3c-3.5-1.5-7.8-1.8-11.4-2.2c-6.7-0.6-12.1-2.1-17.9-3.6
		c-13.1-3.4-26.5-2.7-40.8-3.2c-3.4-0.1-6.4-0.9-9.4-1.7c-1-0.1-2-0.4-3-0.7c-0.4-0.1-0.7-0.3-1-0.4c0,0-0.1,0-0.1,0
		c-1.7-0.4-3.3-0.7-5-0.9c-3.3-0.3-6.8,0.9-10.3,1.9c-0.2,0-0.3,0-0.5,0c-4.1-0.6-8-1.2-11.9-1.6c-1.3-4.3-8.7-5.9-12.4-6.5
		c-1.4-0.2-1.4,1.1-2.9,0.3c-1.4-0.7-2.1-3-3-4.2c-3.1-4.1-7.6-3.5-10.8-7.3c2.2-5.3,3.4-11.4,3.5-17.9c0.9-0.2,2-0.2,2.5-0.4
		c0.9-0.3,2-0.7,2.8-1.2c0.4-0.3-0.1-0.6,0.6-0.7c0.6,0.3,1.1,0.8,1.7,1.1c0.2-1.2-0.1-2.4,0.2-3.6c0.5,0.4,1.2,1.5,2.1,1.3
		c0.8-0.2,0.4-2.1,0.3-2.5c0.3,0,0.7-0.1,1.1,0c-0.1,0-0.3-0.1-0.4-0.1c0.6,0.1,1.3,0.1,1.9,0.1c0-0.8,0.9-1.7,1.2-2.4
		c0.6,0.1,0.9-0.1,1.3-0.2c0.8-0.3,0.5-0.6,1.1-1c-0.1-0.1-0.2-0.1-0.3-0.2c0.2-0.1,0.6-0.3,0.8-0.4c-0.2,0-0.4-0.2-0.7-0.3
		c0.2-0.2,0.2-0.3,0.2-0.5c0.1-0.7,0.6-1.2,0.9-1.8c0.3-0.7,0.3-1,1.2-1.7c-0.9-0.9-0.4-1.3-0.4-2.3c0-0.9-1.2-1.8-1.2-2.8
		c-0.4-0.2-0.5-0.6-1.2-0.7c0.1-0.3,0-0.5-0.3-0.6c0.5-0.5,0.3-1.2,0.4-1.7c-0.2,0-0.5-0.1-0.7-0.1c0.9-0.7-0.1-1.2-0.8-1.7
		c-1-0.6-2-1-2.8-1.6c-0.4-0.3-0.7-0.6-1.5-0.8c-0.4-0.1-1.3-0.1-1.7-0.3c-0.3-0.1-0.3-0.4-0.5-0.5c-0.6-0.3-1.9-0.8-2-1.3
		c-0.6,0.1-0.8-0.1-1.3-0.2c-1.4-0.3-2.8-0.5-4.2-0.7c0.2-0.6-1-0.9-1.7-1c0-0.1,0-0.1,0-0.2c-0.6-0.1-1.3-0.2-1.9-0.2
		c0-1,0-2.2,0.1-3.7c0.2-5.7-6.1-16.5-6.1-16.5l-6.4-1.2c0,0-4.4,0.3-13.4-1c-8.8-1.3-8.9,2-8.9,2.1c0,0.4-0.7,1-1,1.4
		c-0.7,1-1.4,2-2.1,3c-0.6,0.9-2.1,10.9-2.8,11.8c-0.7,1-1.2,1.1-2.9,0.9c-0.1,0.1-0.1,0.2-0.2,0.3c-0.2,0-0.4,0-0.5,0
		c-0.3,0.4-1.3,0.4-1.9,0.6c-0.3,0.1-0.6,0.3-1,0.4c-0.5,0.1-1.1-0.1-1.7,0.1c-0.2,0.1-0.1,0.3-0.2,0.4c-0.8,0.4-1.3,0.1-2.3,0.3
		c-0.1,0-0.1,0.3-0.1,0.3c-0.3,0.1-0.8,0.1-1.2,0.2c-0.5,0.1-0.6,0.4-1.3,0.5c-0.1,0-0.1-0.1,0-0.1c-0.5,1.4-3.7,0.9-4,2.2
		c-1.1,0.3-1.1,0.5-1.4,1.1c-0.4,0.6-0.9,0.8-2,1.1c-0.1,0.4-0.7,0.5-1.3,0.6c0.1,0.1,0.1,0.2,0.3,0.2c0,0,0,0.2,0.1,0.3
		c-0.6,0.1-1.5,0.3-1.8,0.7c0.3,0,0.5,0.2,0.8,0.2c-0.4,0.3-1.6,1-1.7,1.4c0.1,0,0.3,0,0.4,0c-0.9,0.8-2.4,1.5-2.9,2.5
		c0.4,0,0.8,0.1,1.1,0.2c0,0.6-0.6,1.4-0.8,2c-0.1,0.4-0.2,0.9-0.2,1.3c0,0.7-0.2,1.4-0.2,2c0,0.7,0.3,1.1,0.4,1.9
		c0.6,0,1.1-0.2,1.6-0.2c-0.1,0.1-0.1,0.4-0.2,0.5c0.1,0,0.2,0,0.3,0c-0.4,0.7-1.3,1.4-1.2,2.2c-0.4,0.2-0.9,0.3-1.3,0.5
		c1.1,0.1,2.2,0,3.2,0c0,0-0.1,0.1-0.2,0.1c0.3,0,0.6,0.1,0.9,0.1c-0.1,0.5,0.4,0.9,0.6,1.4c0.1,0.4-0.3,2.6,1.1,1.7
		c0.2,1,0.7,1.1,2,0.4c-0.1,0.2,0,0.5-0.2,0.6c0.3-0.1,0.7-0.1,1-0.3c0,0.3-0.3,0.6-0.3,0.9c0.1,0,0.2,0,0.3,0c0,0.1,0,0.3-0.1,0.4
		c0.4,0.1,0.8,0.1,1.1,0c-0.2,0.2-0.3,0.5-0.2,0.7c0.3-0.1,0.7-0.3,1.1-0.4c0,0.2,0,0.5,0.1,0.7c0.6,0,1.1-0.3,1.7-0.5
		c0,1,0,2.5,2.2,1.6c0,0.3-0.5,0.8-0.1,1.1c0.5,0.4,1.5-0.1,1.9-0.4c-0.1,0.9,0.4,1.1,1.7,0.7c-0.1,0.3-0.3,0.6-0.2,0.9
		c0.1,0,0.3,0,0.4,0c0.2,0.6,1.5,0.1,1.9-0.2c0.3,0.5,0.7,1.2,1.3,1.5c0.1,3.2,0.8,6.5,1.5,9.7l-0.5-0.2c0.3,1.6,0.7,3.1,1.2,4.6
		c0.3,2.7,0.3,5.4-0.5,8.2c-0.3,1,0.3,2.2-0.4,3.1c-1,1.3-4,1.3-5.2,2.4c-1.5,1.4-4.4,1.4-4.7,3.4c-0.5,3.5-1.8,0.9-5.9,0.3
		c-1-0.1-0.8,1.9-1.1,3.3c-1.6,0.3-3.2,0.6-5,0.9c-3.8,0.5-15.3-1-24.9-1.5c0,0.1-5.3-0.1-7.7,0.6c-8,2.1-12.4,2.1-20.9,2.8
		c-12.2,1.1-12,6.6-24.5,6.7c-6.6,0.1-13.8,1.4-20.7,2.3c-4.2,0.6-9.9,1-14.2,0.4c-4.7-2.6-12.4-7.3-17.4-8.5
		c1.2,0.4,2.3,0.8,3.4,1.2c-0.6,0.4-0.9,1-2,1.4c1.9,1.1,4.2,1.9,6.4,2.3c-1.9,0.3-3.7,0.5-5.7,0.4c1.3,0.3,2.4,0.8,3.6,1.1
		c-0.4,0-1.7,0.3-2.4,0.3c1.6,0.5,3.2,1.1,4.8,1.6c-2-0.2-4.1-0.7-6.1-1c2,0.7,4.1,1.2,6.2,1.1c0.7,0.2,1.5,0.5,2.2,0.7
		c-0.5,0-1-0.1-1.5-0.1c-2.7,0.5-5.5,0.9-8.2,1.5c2.4,1,5.4,0.6,8.1,0.6c-0.2,0.1-0.4,0.2-0.7,0.3H59.4v16.1h19.2
		c-1.3,0.7-2.7,1.4-4,2.1c2.9-0.2,5.8-1,8.5-2.1h2.2c-1.7,1.5-3.6,2.8-5.4,4.1c1.2-0.9,2.4-1.6,3.7-2.4c-2.2,3.1-5.8,5.1-8.2,7.8
		c2.5-1.4,5-3.5,7.6-4.2c-2.3,3.4-5.3,6.1-8.2,8.9c2.3-1.1,4.3-3,6-5c-1.5,2.7-3.1,5.4-3.3,8.4c2.7-1.8,4.9-4.2,7.2-6.6
		c-0.8,3.1-2.8,5.7-4.3,8.6c2.2-1.7,4.4-4.5,6.7-6.6c-0.2,3.3-1.5,6.4-2.9,9.5c2.7-1.9,4.9-4.4,7.1-6.8c-1.3,4.2-3.1,8.2-5,12.1
		c2.4-1.7,4.2-4.2,6.2-6.4c-0.6,3.6-3,7.6-2.4,11.1c2.9-1.6,4.6-4.8,7.2-7.1c0.3,1.4-0.2,3-0.9,4.6c1.8-3.2,3.8-6.5,5.6-9.7
		c-0.2,0.6-0.5,1.2-0.9,1.8c1.2-1.6,2.4-3.4,3.4-5.2c3.7-2.2,7.9-5.6,11.7-5.5c2.6,0.1,5.1,7,7.7,6.6c2.8-0.4,6.6-2.6,9.7-3.8
		c7.7-2.8,13.2-4.6,21.7-4.2c6,0.3,14.8-1.3,20.2,0.3c5.7,1.7,6.5,8.4,12.7,10c2.3,0.6,4.5,0.5,6.8,0.5c2.9,1.3,5.8,2.5,7.1,3.7
		c6.1,5.3,8.2,14.1,8.9,22c0.6,7.1,0.5,14.5,0.5,21.9c-1.3,1-0.8,2.6-1.2,4.5c0,0.8-0.4,1.2-0.5,2.1c0,0.1,0.3,0.8,0.3,0.9
		c0.1,1.6-0.9,2.7-0.1,3.8c-0.2,1-0.5,2.1-0.7,3.1c-0.8,3.6-2.1,5.9-3.6,8.2c-0.9,3.8-2.5,7.5-4.1,11.2c-0.3,0.6-0.6,1.3-0.9,1.9
		c0,0.1,0.1,0.2,0.1,0.3c-0.3,0.4-0.5,0.8-0.8,1.2c-1.3,3.2-2.5,6.5-2.4,9.8c1.2,0.7,2,1.5,2.8,2.1c-1.7,2.7-3.6,5.3-5.6,8.2
		c1.1-0.8,2.7-1.5,3.6-2.2c-1.2,2.7-4.9,5.1-4.1,8.6c3.3-3.3,6-7.2,8.7-11c-0.6,1.4-1.1,3.2-2,4.7c0.8-1,1.7-1.9,2.6-2.9
		c0,2.9-2,5.1-3.5,7.6c2.2-2.1,4-4.5,6-6.8c0,0.8,0.7,2.3,0.7,3.4c0.5-0.5,1-1,1.5-1.6c-0.3,13.3-0.4,31.7,0.4,38.1
		c1.4,10.6-0.7,16.3-1.4,18.8c-0.7,2.5-1.6,8.8-1.4,13.1c0.2,4.3,2.5,19.2,3.4,23.3c0.9,4.1,0.5,2.5-0.2,5.9
		c-0.3,1.5-0.4,4.7-0.4,7.9c0.3,0.4,0.5,0.9,0.5,1.5c0,0.6,0,1.2,0,1.7c0.2,0.6,0.3,1.2,0.3,1.9c0.1,0.2,0.2,0.4,0.3,0.6
		c0.6,1.7,0.7,3.5,0.1,5.1c0,0.8-0.1,1.7-0.4,2.5c-0.2,0.7-0.6,1.4-1,2c0,2.7-0.3,5.4-0.3,8.1c0,3.2,0.7,6.7,0.8,10
		c0.3,0.4,0.5,0.9,0.7,1.4c0.3,0.8,0.3,1.5,0.2,2.3c0,3.9-1.2,10.4-1.7,13.3c0,0.1,0.1,0.1,0.1,0.2c-3.9,1.9-7.8,5.2-8.7,9.2
		c1.8-0.3,3.6-0.2,5.3-1.1c-0.6,1.1-0.9,2.5-1.5,3.5c1.1-0.8,3.4-2,4.7-3.3c-3.6,3.4-7.7,6.9-9.7,11.3c1.8-2.2,4.2-4.1,5.5-6.9
		c0.1,0,0.1,1.2,0.1,1.5c0.6-0.7,1.5-1.7,2.4-2.1c-0.2,1,0.2,2.2,0,3.2c0.8-0.6,2.1-1.9,2.6-2.7c-0.1,0-0.3,1.3,0.3,0.9
		c0.7-1.6,1.8-2.6,2.6-4c-0.1,1.1,0.3,2,0.6,2.9c-0.6,2.9-1.5,6.7-2.8,8.2c-2.2,2.6-6.7,5.7-7.3,6.5c-0.5,0.8-3.8,2.8-2.6,9.1
		c-1.3,0.5-2.6,0.9-1.8,2.5c0.8,1.6,0,6.2,0,6.2s22.8,7.3,31.4,0.5c0.8-4,0.5-4.7,1.2-5.5c0.7-0.8,1.2-2.5,1.1-3.3
		c-0.1-0.8,0.5-0.8,0.5-0.8s2.4,0.9,2.8,0.8c0.2-0.1,2.5-1,4.8-2.2v80.9c-2.2,0.2-4.3,1.3-6,3.2c-4.7-2.2-10.1-1.5-10.6,4.7
		c2.8-0.4,5.3-1.2,8.1,0c0-1.6,0.5-2.6,1.4-3.1c-0.5,0.9-1,2-1.3,3.1c0.5,0.2,0.9,0.5,1.4,0.8c-6.6,0.6-12.7-1-14.6,6.8
		c2.9-5.2,10.6-6.4,15.5-2.6c-3.8-1.2-10.8,0.2-10.6,5.2c8.9-2.1,8.9-7.5,16.8-1.8v0.5c-4.1,0-8.1-0.7-10,3.6
		c3.4,0.2,7,0.1,10.4,0.1l17.9-1.2c7.8,0.1,10.2-5.2,17.4,0.4c-1-2.8-3.7-5.5-6.8-4.3c0-0.2,0-1.3-0.1-1.5
		c4.6-1.4,12.9-2.8,14.7,1.3c-1.8-4.3-10.1-8.6-13.9-4.5c2.9-4.3,8.2-3.2,11.6-0.1c-1.2-4.8-11.1-5-14.2-1.8c0.5-4.2,6.9-4,10.4-3
		c-4.2-3.5-12-4.4-17.2-3.5c-0.1,0.3-0.3,0.8-0.6,1.4v-2c0.2-0.4,0.5-0.7,0.8-1c-0.3,0.1-0.6,0.2-0.8,0.4V515.4
		c0.2-0.2,0.5-0.4,0.7-0.6c-0.1,0.4,0.2,1.9-0.1,2.9c1-0.2,2.3-0.6,3.4-1c-0.1,2.1,0.1,4,0.2,4.6c0.1,1.1-0.9,1.5-0.9,1.5
		s-0.5,7.8,0.4,10c0.9,2.2,10,5.9,10.4,6.1c0.4,0.1,2.8-0.8,2.8-0.8s0.7,0,0.5,0.8c-0.1,0.8,0.4,2.5,1.1,3.3
		c0.7,0.8,0.4,1.6,1.2,5.5c8.6,6.7,31.4-0.5,31.4-0.5s-0.8-4.6,0-6.2c0.8-1.6-0.5-2-1.8-2.5c1.2-6.3-2.1-8.3-2.6-9.1
		c-0.5-0.8-5-3.8-7.3-6.5c-1.5-1.7-2.5-6.3-3-9.3c2.2,1.7,4.3,3,7.6,2.2c-1.9-1.1-3.7-2.3-5.4-3.7c1.5,0.7,3.3,1.2,4.8,1.8
		c-0.5-0.3-1-0.6-1.5-0.8c0.8,0.3,1.8,0.6,2.7,0.8c-0.4-0.4-0.9-0.8-1.4-1.1c0.4-0.1,1,0.1,1.4-0.2c-1.9-1.8-4.4-2.8-6.6-4.2
		c0.5-0.1,0.9-0.1,1.4-0.1c2.5,1.3,4.5,2.7,7,1.8c-1.4-1.5-3.3-2.8-5.1-3.6c0.3,0,0.4-0.2,0.4-0.5c-0.9-0.5-1.8-1-2.7-1.5
		c0.3-0.8,0.5-1.6,0.8-2.5c-0.7-3.5-1.5-8.9-1.4-12.2c0.1,0,0.1-0.1,0.2-0.1c0.1-1.7,0.9-3.2,1-5.1c0.1-2,0.6-4,0.7-6
		c0.1-4.9-1.6-9.1-2.1-13.8c-0.4-4.3,0.4-8.2,1.1-12.4c0.4-2.5-0.2-4.9-0.2-7.4c-0.6-2.9-1-1.6-0.1-5.5c0.9-4.1,3.2-19,3.4-23.3
		c0.2-4.3-0.7-10.6-1.4-13.1c-0.7-2.5-2.7-8.2-1.4-18.8c0.7-5.8,0.7-21.1,0.5-33.8c1,2.6,2.5,5,4.4,6.9c0.9-3.5-0.2-8.3-2.1-11.4
		c0,0.6-0.1,1.3-0.1,1.9c0-1.1,0-2.3,0-3.5c0.3,0.4,0.6,0.7,1,0.9c0-0.6,0.2-1.2,0.4-1.8c-0.5-0.3-1-0.7-1.5-1
		c0.5,0.1,1.1,0.3,1.7,0.4c0-0.1,0.1-0.3,0.1-0.4c0.2,0.2,0.5,0.4,0.9,0.7c0.1,0,0.1,0,0.2,0.1c-0.1-0.9-1.3-2.6-2.7-4.3
		c1,0,1.9-0.1,2.5-0.4c2.1-1.2,3.2-3.6,3.5-6.2c-0.8-5.6-6.2-17.1-6-24.3c-0.3-0.5-0.5-0.9-0.8-1.4c-0.1-0.8-0.2-1.7-0.4-2.5
		c-0.5-1-0.9-2.1-1.2-3.2c0-1.2-0.3-2.4-0.4-3.6c-0.1-0.7-0.1-1.3-0.3-1.9c-0.4-1.3-0.8-2.3-0.8-3.7c0-0.7,0.2-1.6-0.1-2.2
		c0,0,0,0,0,0c0,0,0,0,0,0c-0.4-0.3-0.9-0.6-1.3-0.8c-0.2-1-0.3-2-0.3-3.2c-0.1-11.2-2.2-25.1,2.3-35.4c0.5-1.1,1-2.3,1.6-3.6
		c0.7-0.1,1.5-0.3,2.3-0.8c1.8-1,2.2-5.1,3.8-6.6c1.1-1,3.7-0.8,5-1.8c2.3-1.7,4.2-4.3,6.9-6.2c3-2.1,5.9-3,8.7-3.5
		c0.3,0,0.6,0,0.9,0c1.6,0.1,3,0.5,4.2,1.2c8.2,0.2,16.5-0.3,24.4,0.6c9.9,1.2,17.9-3.5,27.3-3.1c0.1,0,0.1,0,0.2,0
		c1.2,0.8,2.3,1.6,3.8,2.1c1.1,0.4,2.2,0.6,3.3,0.8c6.2,4.5,11.2,12.7,17.8,13.6c-0.2,2.4-0.7,5-0.8,6.6c0.7-2,2.5-3.3,3.8-4.8
		c2.7,4.3,2.6,10.3,3.1,15.5c1.1-2.6,1.8-5.3,2.1-8.1c0,0.2,0,0.3,0.1,0.5c0-0.3,0-0.6,0-0.9c0-0.1,0-0.2,0-0.3c0-0.2,0-0.3-0.1-0.5
		c0-0.8,0-1.5,0-2.3c0,0.4-0.1,0.8-0.1,1.2c-0.3-3.5-0.5-7-0.2-10.4c0.4,2.3,1.1,4.9,2.2,6.5c0.5-3.3,1-6.8,1.9-9.8
		c0.1,3.1,0.3,6.2,0.8,9.2c0.2-3.3,0.8-6.7,1.4-10c0.9,2.9,1.1,6.3,1,9.5c0.4-2.7,0.7-5.4,0.6-8.2c0.2,2.1,0.6,4.2,1.1,6.2
		c0.3-1.1,0.5-2.2,0.7-3.4c0.1,0.4,0.3,0.7,0.4,1.1c-0.1-1.4-0.3-2.8-0.6-4.2c0.1,0.8,0,1.6-0.1,2.3c-0.5-1.8-0.8-3.6-1-5.5
		c1.4,2.3,3.1,4.6,4.3,7c0.3,1,0.7,1.9,1.2,2.8c-0.3-1-0.7-1.9-1.1-2.8c-0.4-1.2-0.6-2.5-0.7-3.8c-2.1-3.2-3.9-6.9-4.3-10.6
		c-1-0.4-2.2-0.9-2.6-1c0.7-0.2,1.4-0.3,2.1-0.4c-1.5-0.1-3.2-0.5-4.7-0.6c1.6,0,3.2-0.1,4.8-0.3c0,0.5,0,1.1,0.1,1.6
		c0.6,0.3,1.2,0.5,1.3,0.6c-0.4-0.8-0.8-1.5-1.2-2.3c2-0.2,4-0.7,6-1.3c-1.1-0.5-4.2-1-5.9-1c0.7-0.4,1.5-0.8,2.4-1.1H442.2z
		 M258.8,458.8c1.2,5.1,2.1,9.5,1.4,11.5c-1.6,4.8-1.8,16.3,0,17.2c1.3,0.7-0.6,3.9-1.4,6.2V458.8z M258.8,512.5v-16.4
		c0.8,1.9,2,8.6,1.9,12.7C260.1,510,259.4,511.3,258.8,512.5z M300.1,343.4c0.1,0.2,0.1,0.4,0.2,0.6c-0.1,0.4-0.2,0.9-0.2,1.3
		C300.1,344.7,300.1,344.1,300.1,343.4z"/>
	<path d="M259.4,618.9c1.2-0.5,2.7-0.8,4.4-1C262,617.5,260.5,617.9,259.4,618.9z"/>
	<path d="M312.1,352.3C312.1,352.3,312.1,352.3,312.1,352.3C312.1,352.3,312.1,352.4,312.1,352.3z"/>
	<path d="M302.1,343.7c3.6,2.6,6.7,5.6,10,8.6c-0.1-0.3-0.1-1-0.2-1.6c-2.7-1.7-5.8-4-7.2-6.7c0,0.1,0.1,0.3,0.1,0.4
		c-0.1-0.1-0.8-0.6-1.4-1c-0.3-0.1-0.7-0.2-1-0.3C302.3,343.2,302.2,343.4,302.1,343.7z"/>
	<path d="M304.6,343.9c-0.2-0.6-0.4-1.5-0.8-2.2C304,342.5,304.2,343.2,304.6,343.9z"/>
	<path d="M311.8,349.8c-0.1-0.5,0,0.1,0.1,0.8c0.2,0.1,0.3,0.2,0.5,0.3C312.5,350.4,312.4,350.1,311.8,349.8z"/>
</g>
</svg>
